<?xml version="1.0" standalone="no"?>
<!DOCTYPE svg PUBLIC "-//W3C//DTD SVG 20010904//EN"
 "http://www.w3.org/TR/2001/REC-SVG-20010904/DTD/svg10.dtd">
<svg version="1.0" xmlns="http://www.w3.org/2000/svg"
 width="256.000000pt" height="256.000000pt" viewBox="0 0 256.000000 256.000000"
 preserveAspectRatio="xMidYMid meet">
<metadata>
Created by potrace 1.11, written by Peter Selinger 2001-2013
</metadata>
<g transform="translate(0.000000,256.000000) scale(0.100000,-0.100000)"
fill="#000000" stroke="none">
<path d="M651 2542 c-18 -34 -4 -48 77 -72 42 -13 84 -29 93 -36 8 -8 19 -14
23 -14 8 0 69 -45 101 -75 36 -34 94 -115 116 -161 l20 -44 -31 -45 c-76 -110
-81 -247 -14 -356 l22 -36 -106 -17 c-260 -42 -530 -170 -674 -318 -26 -26
-62 -79 -80 -116 -30 -62 -33 -74 -33 -167 0 -92 3 -105 33 -167 118 -243 410
-309 625 -142 33 25 56 41 53 36 -3 -6 -9 -43 -12 -82 -9 -123 36 -246 122
-334 39 -41 212 -156 234 -156 18 0 25 -36 25 -129 -1 -89 0 -94 23 -104 40
-18 51 8 49 125 -2 95 -1 101 20 109 49 18 204 122 245 163 99 101 128 210
103 380 -6 40 -6 41 12 21 30 -35 135 -94 193 -109 94 -24 230 -6 306 40 229
140 268 441 83 632 -125 129 -422 277 -616 307 -15 3 -53 8 -83 13 -66 10 -70
11 -70 17 0 3 12 29 27 58 23 44 27 65 27 137 1 72 -3 94 -25 141 -15 32 -36
66 -48 78 l-21 21 26 53 c70 138 211 253 344 282 51 11 70 23 70 45 0 26 -33
42 -67 33 -16 -4 -30 -8 -33 -8 -56 -9 -174 -75 -242 -135 -49 -42 -148 -181
-148 -206 0 -17 -2 -17 -68 0 -59 16 -126 13 -176 -8 l-32 -13 -34 65 c-64
121 -206 244 -330 286 -86 28 -117 30 -129 8z"/>
</g>
</svg>
